<mxfile host="app.diagrams.net" modified="2020-10-26T11:58:07.501Z" agent="5.0 (Windows NT 10.0; Win64; x64) AppleWebKit/537.36 (KHTML, like Gecko) Chrome/86.0.4240.111 Safari/537.36" etag="bkxjAzyRtZGvmRSnPVYq" version="13.8.2" type="github">
  <diagram id="C5RBs43oDa-KdzZeNtuy" name="Page-1">
    <mxGraphModel dx="2130" dy="782" grid="1" gridSize="10" guides="1" tooltips="1" connect="1" arrows="1" fold="1" page="1" pageScale="1" pageWidth="827" pageHeight="1169" math="0" shadow="0">
      <root>
        <mxCell id="WIyWlLk6GJQsqaUBKTNV-0" />
        <mxCell id="WIyWlLk6GJQsqaUBKTNV-1" parent="WIyWlLk6GJQsqaUBKTNV-0" />
        <mxCell id="WIyWlLk6GJQsqaUBKTNV-2" value="" style="rounded=0;html=1;jettySize=auto;orthogonalLoop=1;fontSize=11;endArrow=block;endFill=0;endSize=8;strokeWidth=1;shadow=0;labelBackgroundColor=none;edgeStyle=orthogonalEdgeStyle;" parent="WIyWlLk6GJQsqaUBKTNV-1" source="WIyWlLk6GJQsqaUBKTNV-3" target="WIyWlLk6GJQsqaUBKTNV-6" edge="1">
          <mxGeometry relative="1" as="geometry" />
        </mxCell>
        <mxCell id="WIyWlLk6GJQsqaUBKTNV-3" value="Узнать список документов на командировку. Начало" style="rounded=1;whiteSpace=wrap;html=1;fontSize=12;glass=0;strokeWidth=1;shadow=0;" parent="WIyWlLk6GJQsqaUBKTNV-1" vertex="1">
          <mxGeometry x="160" y="80" width="120" height="60" as="geometry" />
        </mxCell>
        <mxCell id="gxxnz1n0rxh--4Y8uyvk-43" style="edgeStyle=orthogonalEdgeStyle;rounded=0;orthogonalLoop=1;jettySize=auto;html=1;exitX=0.5;exitY=1;exitDx=0;exitDy=0;entryX=0.5;entryY=0;entryDx=0;entryDy=0;" edge="1" parent="WIyWlLk6GJQsqaUBKTNV-1" source="WIyWlLk6GJQsqaUBKTNV-6">
          <mxGeometry relative="1" as="geometry">
            <mxPoint x="107.5" y="305.0000000000001" as="targetPoint" />
          </mxGeometry>
        </mxCell>
        <mxCell id="gxxnz1n0rxh--4Y8uyvk-44" style="edgeStyle=orthogonalEdgeStyle;rounded=0;orthogonalLoop=1;jettySize=auto;html=1;exitX=0.5;exitY=1;exitDx=0;exitDy=0;entryX=0.5;entryY=0;entryDx=0;entryDy=0;" edge="1" parent="WIyWlLk6GJQsqaUBKTNV-1" source="WIyWlLk6GJQsqaUBKTNV-6" target="gxxnz1n0rxh--4Y8uyvk-135">
          <mxGeometry relative="1" as="geometry">
            <mxPoint x="315" y="305.0000000000001" as="targetPoint" />
          </mxGeometry>
        </mxCell>
        <mxCell id="WIyWlLk6GJQsqaUBKTNV-6" value="Командировка была по 1. России 2. Зарубеж?" style="rhombus;whiteSpace=wrap;html=1;shadow=0;fontFamily=Helvetica;fontSize=12;align=center;strokeWidth=1;spacing=6;spacingTop=-4;" parent="WIyWlLk6GJQsqaUBKTNV-1" vertex="1">
          <mxGeometry x="167.5" y="170" width="105" height="90" as="geometry" />
        </mxCell>
        <mxCell id="gxxnz1n0rxh--4Y8uyvk-49" style="edgeStyle=orthogonalEdgeStyle;rounded=0;orthogonalLoop=1;jettySize=auto;html=1;exitX=0.5;exitY=1;exitDx=0;exitDy=0;" edge="1" parent="WIyWlLk6GJQsqaUBKTNV-1" source="gxxnz1n0rxh--4Y8uyvk-134">
          <mxGeometry relative="1" as="geometry">
            <mxPoint x="220" y="530" as="targetPoint" />
            <mxPoint x="107.5" y="345.0000000000001" as="sourcePoint" />
            <Array as="points">
              <mxPoint x="108" y="365" />
              <mxPoint x="108" y="500" />
              <mxPoint x="220" y="500" />
            </Array>
          </mxGeometry>
        </mxCell>
        <mxCell id="gxxnz1n0rxh--4Y8uyvk-51" style="edgeStyle=orthogonalEdgeStyle;rounded=0;orthogonalLoop=1;jettySize=auto;html=1;exitX=0.5;exitY=1;exitDx=0;exitDy=0;entryX=0.5;entryY=0;entryDx=0;entryDy=0;" edge="1" parent="WIyWlLk6GJQsqaUBKTNV-1" source="WIyWlLk6GJQsqaUBKTNV-10" target="gxxnz1n0rxh--4Y8uyvk-20">
          <mxGeometry relative="1" as="geometry">
            <Array as="points">
              <mxPoint x="220" y="700" />
              <mxPoint x="98" y="700" />
            </Array>
          </mxGeometry>
        </mxCell>
        <mxCell id="gxxnz1n0rxh--4Y8uyvk-53" style="edgeStyle=orthogonalEdgeStyle;rounded=0;orthogonalLoop=1;jettySize=auto;html=1;exitX=0.5;exitY=1;exitDx=0;exitDy=0;entryX=0.5;entryY=0;entryDx=0;entryDy=0;" edge="1" parent="WIyWlLk6GJQsqaUBKTNV-1" source="WIyWlLk6GJQsqaUBKTNV-10" target="gxxnz1n0rxh--4Y8uyvk-140">
          <mxGeometry relative="1" as="geometry">
            <mxPoint x="395" y="730" as="targetPoint" />
            <Array as="points">
              <mxPoint x="220" y="700" />
              <mxPoint x="375" y="700" />
            </Array>
          </mxGeometry>
        </mxCell>
        <mxCell id="gxxnz1n0rxh--4Y8uyvk-54" style="edgeStyle=orthogonalEdgeStyle;rounded=0;orthogonalLoop=1;jettySize=auto;html=1;exitX=0.5;exitY=1;exitDx=0;exitDy=0;" edge="1" parent="WIyWlLk6GJQsqaUBKTNV-1" source="WIyWlLk6GJQsqaUBKTNV-10" target="gxxnz1n0rxh--4Y8uyvk-23">
          <mxGeometry relative="1" as="geometry">
            <Array as="points">
              <mxPoint x="220" y="700" />
              <mxPoint x="610" y="700" />
            </Array>
          </mxGeometry>
        </mxCell>
        <mxCell id="WIyWlLk6GJQsqaUBKTNV-10" value="Поездка до места командирования на&lt;br&gt;&amp;nbsp;1. самолете 2. машине 3. поезде" style="rhombus;whiteSpace=wrap;html=1;shadow=0;fontFamily=Helvetica;fontSize=12;align=center;strokeWidth=1;spacing=6;spacingTop=-4;" parent="WIyWlLk6GJQsqaUBKTNV-1" vertex="1">
          <mxGeometry x="150" y="530" width="140" height="130" as="geometry" />
        </mxCell>
        <mxCell id="gxxnz1n0rxh--4Y8uyvk-46" style="edgeStyle=orthogonalEdgeStyle;rounded=0;orthogonalLoop=1;jettySize=auto;html=1;exitX=0.5;exitY=1;exitDx=0;exitDy=0;entryX=0.5;entryY=0;entryDx=0;entryDy=0;" edge="1" parent="WIyWlLk6GJQsqaUBKTNV-1" source="gxxnz1n0rxh--4Y8uyvk-135" target="gxxnz1n0rxh--4Y8uyvk-138">
          <mxGeometry relative="1" as="geometry">
            <mxPoint x="315" y="365" as="sourcePoint" />
            <mxPoint x="315" y="420" as="targetPoint" />
          </mxGeometry>
        </mxCell>
        <mxCell id="gxxnz1n0rxh--4Y8uyvk-8" value="1" style="text;html=1;align=center;verticalAlign=middle;resizable=0;points=[];autosize=1;" vertex="1" parent="WIyWlLk6GJQsqaUBKTNV-1">
          <mxGeometry x="140" y="260" width="20" height="20" as="geometry" />
        </mxCell>
        <mxCell id="gxxnz1n0rxh--4Y8uyvk-15" value="2" style="text;html=1;align=center;verticalAlign=middle;resizable=0;points=[];autosize=1;" vertex="1" parent="WIyWlLk6GJQsqaUBKTNV-1">
          <mxGeometry x="250" y="700" width="20" height="20" as="geometry" />
        </mxCell>
        <mxCell id="gxxnz1n0rxh--4Y8uyvk-16" value="3" style="text;html=1;align=center;verticalAlign=middle;resizable=0;points=[];autosize=1;" vertex="1" parent="WIyWlLk6GJQsqaUBKTNV-1">
          <mxGeometry x="420" y="700" width="20" height="20" as="geometry" />
        </mxCell>
        <mxCell id="gxxnz1n0rxh--4Y8uyvk-56" style="edgeStyle=orthogonalEdgeStyle;rounded=0;orthogonalLoop=1;jettySize=auto;html=1;exitX=0;exitY=0.5;exitDx=0;exitDy=0;entryX=0.5;entryY=0;entryDx=0;entryDy=0;" edge="1" parent="WIyWlLk6GJQsqaUBKTNV-1" source="gxxnz1n0rxh--4Y8uyvk-20" target="gxxnz1n0rxh--4Y8uyvk-141">
          <mxGeometry relative="1" as="geometry">
            <mxPoint x="-12.5" y="870" as="targetPoint" />
          </mxGeometry>
        </mxCell>
        <mxCell id="gxxnz1n0rxh--4Y8uyvk-61" style="edgeStyle=orthogonalEdgeStyle;rounded=0;orthogonalLoop=1;jettySize=auto;html=1;exitX=1;exitY=0.5;exitDx=0;exitDy=0;entryX=0.5;entryY=0;entryDx=0;entryDy=0;" edge="1" parent="WIyWlLk6GJQsqaUBKTNV-1" source="gxxnz1n0rxh--4Y8uyvk-20">
          <mxGeometry relative="1" as="geometry">
            <mxPoint x="200" y="870" as="targetPoint" />
          </mxGeometry>
        </mxCell>
        <mxCell id="gxxnz1n0rxh--4Y8uyvk-20" value="Необходимо предоставить оригинальные посадочные талоны. Они у вас есть?" style="rhombus;whiteSpace=wrap;html=1;shadow=0;fontFamily=Helvetica;fontSize=12;align=center;strokeWidth=1;spacing=6;spacingTop=-4;" vertex="1" parent="WIyWlLk6GJQsqaUBKTNV-1">
          <mxGeometry x="27.5" y="730" width="140" height="130" as="geometry" />
        </mxCell>
        <mxCell id="gxxnz1n0rxh--4Y8uyvk-90" style="edgeStyle=orthogonalEdgeStyle;rounded=0;orthogonalLoop=1;jettySize=auto;html=1;exitX=0.5;exitY=1;exitDx=0;exitDy=0;entryX=0.5;entryY=0;entryDx=0;entryDy=0;" edge="1" parent="WIyWlLk6GJQsqaUBKTNV-1" source="gxxnz1n0rxh--4Y8uyvk-23">
          <mxGeometry relative="1" as="geometry">
            <mxPoint x="730" y="900" as="targetPoint" />
          </mxGeometry>
        </mxCell>
        <mxCell id="gxxnz1n0rxh--4Y8uyvk-178" style="edgeStyle=orthogonalEdgeStyle;rounded=0;orthogonalLoop=1;jettySize=auto;html=1;exitX=0.5;exitY=1;exitDx=0;exitDy=0;entryX=0.5;entryY=0;entryDx=0;entryDy=0;" edge="1" parent="WIyWlLk6GJQsqaUBKTNV-1" source="gxxnz1n0rxh--4Y8uyvk-23" target="gxxnz1n0rxh--4Y8uyvk-144">
          <mxGeometry relative="1" as="geometry" />
        </mxCell>
        <mxCell id="gxxnz1n0rxh--4Y8uyvk-23" value="Жд билет был куплен самостоятельно? (нежелательна покупка)" style="rhombus;whiteSpace=wrap;html=1;shadow=0;fontFamily=Helvetica;fontSize=12;align=center;strokeWidth=1;spacing=6;spacingTop=-4;" vertex="1" parent="WIyWlLk6GJQsqaUBKTNV-1">
          <mxGeometry x="540" y="730" width="140" height="130" as="geometry" />
        </mxCell>
        <mxCell id="gxxnz1n0rxh--4Y8uyvk-64" style="edgeStyle=orthogonalEdgeStyle;rounded=0;orthogonalLoop=1;jettySize=auto;html=1;exitX=0.5;exitY=1;exitDx=0;exitDy=0;entryX=0.5;entryY=0;entryDx=0;entryDy=0;" edge="1" parent="WIyWlLk6GJQsqaUBKTNV-1" source="gxxnz1n0rxh--4Y8uyvk-25">
          <mxGeometry relative="1" as="geometry">
            <mxPoint x="-12.5" y="1130.0000000000002" as="targetPoint" />
          </mxGeometry>
        </mxCell>
        <mxCell id="gxxnz1n0rxh--4Y8uyvk-65" style="edgeStyle=orthogonalEdgeStyle;rounded=0;orthogonalLoop=1;jettySize=auto;html=1;exitX=0.5;exitY=1;exitDx=0;exitDy=0;entryX=0.5;entryY=0;entryDx=0;entryDy=0;" edge="1" parent="WIyWlLk6GJQsqaUBKTNV-1" source="gxxnz1n0rxh--4Y8uyvk-25">
          <mxGeometry relative="1" as="geometry">
            <mxPoint x="180" y="1130.0000000000002" as="targetPoint" />
          </mxGeometry>
        </mxCell>
        <mxCell id="gxxnz1n0rxh--4Y8uyvk-25" value="Авиабилеты куплены самостоятельно? (нежелательна покупка)" style="rhombus;whiteSpace=wrap;html=1;" vertex="1" parent="WIyWlLk6GJQsqaUBKTNV-1">
          <mxGeometry x="30" y="980" width="110" height="110" as="geometry" />
        </mxCell>
        <mxCell id="gxxnz1n0rxh--4Y8uyvk-63" style="edgeStyle=orthogonalEdgeStyle;rounded=0;orthogonalLoop=1;jettySize=auto;html=1;exitX=0.5;exitY=1;exitDx=0;exitDy=0;entryX=0.5;entryY=0;entryDx=0;entryDy=0;" edge="1" parent="WIyWlLk6GJQsqaUBKTNV-1" source="gxxnz1n0rxh--4Y8uyvk-141" target="gxxnz1n0rxh--4Y8uyvk-25">
          <mxGeometry relative="1" as="geometry">
            <mxPoint x="-12.5" y="930" as="sourcePoint" />
          </mxGeometry>
        </mxCell>
        <mxCell id="gxxnz1n0rxh--4Y8uyvk-62" style="edgeStyle=orthogonalEdgeStyle;rounded=0;orthogonalLoop=1;jettySize=auto;html=1;exitX=0.5;exitY=1;exitDx=0;exitDy=0;entryX=0.5;entryY=0;entryDx=0;entryDy=0;" edge="1" parent="WIyWlLk6GJQsqaUBKTNV-1" source="gxxnz1n0rxh--4Y8uyvk-143" target="gxxnz1n0rxh--4Y8uyvk-25">
          <mxGeometry relative="1" as="geometry">
            <mxPoint x="200" y="930" as="sourcePoint" />
          </mxGeometry>
        </mxCell>
        <mxCell id="gxxnz1n0rxh--4Y8uyvk-34" value="Да" style="text;html=1;strokeColor=none;fillColor=none;align=center;verticalAlign=middle;whiteSpace=wrap;rounded=0;" vertex="1" parent="WIyWlLk6GJQsqaUBKTNV-1">
          <mxGeometry x="-12.5" y="770" width="40" height="20" as="geometry" />
        </mxCell>
        <mxCell id="gxxnz1n0rxh--4Y8uyvk-35" value="Нет" style="text;html=1;strokeColor=none;fillColor=none;align=center;verticalAlign=middle;whiteSpace=wrap;rounded=0;" vertex="1" parent="WIyWlLk6GJQsqaUBKTNV-1">
          <mxGeometry x="160" y="770" width="40" height="20" as="geometry" />
        </mxCell>
        <mxCell id="gxxnz1n0rxh--4Y8uyvk-73" style="edgeStyle=orthogonalEdgeStyle;rounded=0;orthogonalLoop=1;jettySize=auto;html=1;exitX=0.5;exitY=1;exitDx=0;exitDy=0;entryX=0.5;entryY=0;entryDx=0;entryDy=0;" edge="1" parent="WIyWlLk6GJQsqaUBKTNV-1" target="gxxnz1n0rxh--4Y8uyvk-68">
          <mxGeometry relative="1" as="geometry">
            <mxPoint x="-12.5" y="1190.0000000000002" as="sourcePoint" />
          </mxGeometry>
        </mxCell>
        <mxCell id="gxxnz1n0rxh--4Y8uyvk-47" value="2" style="text;html=1;align=center;verticalAlign=middle;resizable=0;points=[];autosize=1;" vertex="1" parent="WIyWlLk6GJQsqaUBKTNV-1">
          <mxGeometry x="272.5" y="260" width="20" height="20" as="geometry" />
        </mxCell>
        <mxCell id="gxxnz1n0rxh--4Y8uyvk-55" value="1" style="text;html=1;align=center;verticalAlign=middle;resizable=0;points=[];autosize=1;" vertex="1" parent="WIyWlLk6GJQsqaUBKTNV-1">
          <mxGeometry x="70" y="700" width="20" height="20" as="geometry" />
        </mxCell>
        <mxCell id="gxxnz1n0rxh--4Y8uyvk-66" value="Да" style="text;html=1;strokeColor=none;fillColor=none;align=center;verticalAlign=middle;whiteSpace=wrap;rounded=0;" vertex="1" parent="WIyWlLk6GJQsqaUBKTNV-1">
          <mxGeometry y="1090" width="40" height="20" as="geometry" />
        </mxCell>
        <mxCell id="gxxnz1n0rxh--4Y8uyvk-67" value="Нет" style="text;html=1;strokeColor=none;fillColor=none;align=center;verticalAlign=middle;whiteSpace=wrap;rounded=0;" vertex="1" parent="WIyWlLk6GJQsqaUBKTNV-1">
          <mxGeometry x="130" y="1090" width="40" height="20" as="geometry" />
        </mxCell>
        <mxCell id="gxxnz1n0rxh--4Y8uyvk-80" style="edgeStyle=orthogonalEdgeStyle;rounded=0;orthogonalLoop=1;jettySize=auto;html=1;exitX=1;exitY=0.5;exitDx=0;exitDy=0;entryX=0.5;entryY=0;entryDx=0;entryDy=0;" edge="1" parent="WIyWlLk6GJQsqaUBKTNV-1" source="gxxnz1n0rxh--4Y8uyvk-68" target="gxxnz1n0rxh--4Y8uyvk-79">
          <mxGeometry relative="1" as="geometry" />
        </mxCell>
        <mxCell id="gxxnz1n0rxh--4Y8uyvk-153" style="edgeStyle=orthogonalEdgeStyle;rounded=0;orthogonalLoop=1;jettySize=auto;html=1;exitX=0;exitY=0.5;exitDx=0;exitDy=0;entryX=0.5;entryY=0;entryDx=0;entryDy=0;" edge="1" parent="WIyWlLk6GJQsqaUBKTNV-1" source="gxxnz1n0rxh--4Y8uyvk-68" target="gxxnz1n0rxh--4Y8uyvk-152">
          <mxGeometry relative="1" as="geometry" />
        </mxCell>
        <mxCell id="gxxnz1n0rxh--4Y8uyvk-68" value="У вас прилет из командировки после 23:20/вылет ранее 00:40 ?" style="rhombus;whiteSpace=wrap;html=1;" vertex="1" parent="WIyWlLk6GJQsqaUBKTNV-1">
          <mxGeometry x="-12.5" y="1240" width="175" height="170" as="geometry" />
        </mxCell>
        <mxCell id="gxxnz1n0rxh--4Y8uyvk-85" style="edgeStyle=orthogonalEdgeStyle;rounded=0;orthogonalLoop=1;jettySize=auto;html=1;exitX=0.5;exitY=1;exitDx=0;exitDy=0;entryX=0.5;entryY=0;entryDx=0;entryDy=0;" edge="1" parent="WIyWlLk6GJQsqaUBKTNV-1">
          <mxGeometry relative="1" as="geometry">
            <mxPoint x="90" y="1760" as="sourcePoint" />
            <mxPoint x="90" y="1810" as="targetPoint" />
          </mxGeometry>
        </mxCell>
        <mxCell id="gxxnz1n0rxh--4Y8uyvk-78" value="да" style="text;html=1;align=center;verticalAlign=middle;resizable=0;points=[];autosize=1;" vertex="1" parent="WIyWlLk6GJQsqaUBKTNV-1">
          <mxGeometry x="-65" y="1300" width="30" height="20" as="geometry" />
        </mxCell>
        <mxCell id="gxxnz1n0rxh--4Y8uyvk-97" style="edgeStyle=orthogonalEdgeStyle;rounded=0;orthogonalLoop=1;jettySize=auto;html=1;exitX=1;exitY=0.5;exitDx=0;exitDy=0;entryX=0.5;entryY=0;entryDx=0;entryDy=0;" edge="1" parent="WIyWlLk6GJQsqaUBKTNV-1" source="gxxnz1n0rxh--4Y8uyvk-79" target="gxxnz1n0rxh--4Y8uyvk-92">
          <mxGeometry relative="1" as="geometry">
            <Array as="points">
              <mxPoint x="470" y="1515" />
              <mxPoint x="470" y="1970" />
              <mxPoint x="445" y="1970" />
            </Array>
          </mxGeometry>
        </mxCell>
        <mxCell id="gxxnz1n0rxh--4Y8uyvk-156" style="edgeStyle=orthogonalEdgeStyle;rounded=0;orthogonalLoop=1;jettySize=auto;html=1;exitX=0;exitY=0.5;exitDx=0;exitDy=0;entryX=0.5;entryY=0;entryDx=0;entryDy=0;" edge="1" parent="WIyWlLk6GJQsqaUBKTNV-1" source="gxxnz1n0rxh--4Y8uyvk-79" target="gxxnz1n0rxh--4Y8uyvk-155">
          <mxGeometry relative="1" as="geometry" />
        </mxCell>
        <mxCell id="gxxnz1n0rxh--4Y8uyvk-79" value="У вас был поздний приезд из командировки, но прилет ранее 23:20 / ранний выезд в командировку но вылет позднее 00:40, у вас есть подтверждение в виде чека на такси и вы хотите получить дополнительный день суточных?" style="rhombus;whiteSpace=wrap;html=1;" vertex="1" parent="WIyWlLk6GJQsqaUBKTNV-1">
          <mxGeometry x="180" y="1400" width="230" height="230" as="geometry" />
        </mxCell>
        <mxCell id="gxxnz1n0rxh--4Y8uyvk-81" value="нет" style="text;html=1;align=center;verticalAlign=middle;resizable=0;points=[];autosize=1;" vertex="1" parent="WIyWlLk6GJQsqaUBKTNV-1">
          <mxGeometry x="195" y="1300" width="30" height="20" as="geometry" />
        </mxCell>
        <mxCell id="gxxnz1n0rxh--4Y8uyvk-83" value="да" style="text;html=1;align=center;verticalAlign=middle;resizable=0;points=[];autosize=1;" vertex="1" parent="WIyWlLk6GJQsqaUBKTNV-1">
          <mxGeometry x="130" y="1490" width="30" height="20" as="geometry" />
        </mxCell>
        <mxCell id="gxxnz1n0rxh--4Y8uyvk-96" style="edgeStyle=orthogonalEdgeStyle;rounded=0;orthogonalLoop=1;jettySize=auto;html=1;entryX=0.5;entryY=0;entryDx=0;entryDy=0;" edge="1" parent="WIyWlLk6GJQsqaUBKTNV-1" target="gxxnz1n0rxh--4Y8uyvk-92">
          <mxGeometry relative="1" as="geometry">
            <mxPoint x="90" y="1890" as="sourcePoint" />
            <Array as="points">
              <mxPoint x="90" y="1970" />
              <mxPoint x="445" y="1970" />
            </Array>
          </mxGeometry>
        </mxCell>
        <mxCell id="gxxnz1n0rxh--4Y8uyvk-86" value="нет" style="text;html=1;align=center;verticalAlign=middle;resizable=0;points=[];autosize=1;" vertex="1" parent="WIyWlLk6GJQsqaUBKTNV-1">
          <mxGeometry x="425" y="1490" width="30" height="20" as="geometry" />
        </mxCell>
        <mxCell id="gxxnz1n0rxh--4Y8uyvk-102" style="edgeStyle=orthogonalEdgeStyle;rounded=0;orthogonalLoop=1;jettySize=auto;html=1;exitX=0;exitY=0.5;exitDx=0;exitDy=0;entryX=0.5;entryY=0;entryDx=0;entryDy=0;" edge="1" parent="WIyWlLk6GJQsqaUBKTNV-1" source="gxxnz1n0rxh--4Y8uyvk-92" target="gxxnz1n0rxh--4Y8uyvk-101">
          <mxGeometry relative="1" as="geometry" />
        </mxCell>
        <mxCell id="gxxnz1n0rxh--4Y8uyvk-176" style="edgeStyle=orthogonalEdgeStyle;rounded=0;orthogonalLoop=1;jettySize=auto;html=1;exitX=1;exitY=0.5;exitDx=0;exitDy=0;entryX=0.5;entryY=0;entryDx=0;entryDy=0;" edge="1" parent="WIyWlLk6GJQsqaUBKTNV-1" source="gxxnz1n0rxh--4Y8uyvk-92" target="gxxnz1n0rxh--4Y8uyvk-170">
          <mxGeometry relative="1" as="geometry">
            <mxPoint x="440" y="3061.428571428572" as="targetPoint" />
            <Array as="points">
              <mxPoint x="1010" y="2060" />
              <mxPoint x="1010" y="3061" />
              <mxPoint x="440" y="3061" />
            </Array>
          </mxGeometry>
        </mxCell>
        <mxCell id="gxxnz1n0rxh--4Y8uyvk-92" value="Проживали в отеле?" style="rhombus;whiteSpace=wrap;html=1;" vertex="1" parent="WIyWlLk6GJQsqaUBKTNV-1">
          <mxGeometry x="380" y="1990" width="130" height="140" as="geometry" />
        </mxCell>
        <mxCell id="gxxnz1n0rxh--4Y8uyvk-106" style="edgeStyle=orthogonalEdgeStyle;rounded=0;orthogonalLoop=1;jettySize=auto;html=1;exitX=0;exitY=0.5;exitDx=0;exitDy=0;entryX=0.5;entryY=0;entryDx=0;entryDy=0;" edge="1" parent="WIyWlLk6GJQsqaUBKTNV-1" source="gxxnz1n0rxh--4Y8uyvk-101" target="gxxnz1n0rxh--4Y8uyvk-105">
          <mxGeometry relative="1" as="geometry" />
        </mxCell>
        <mxCell id="gxxnz1n0rxh--4Y8uyvk-116" style="edgeStyle=orthogonalEdgeStyle;rounded=0;orthogonalLoop=1;jettySize=auto;html=1;exitX=1;exitY=0.5;exitDx=0;exitDy=0;entryX=0.5;entryY=0;entryDx=0;entryDy=0;" edge="1" parent="WIyWlLk6GJQsqaUBKTNV-1" source="gxxnz1n0rxh--4Y8uyvk-101" target="gxxnz1n0rxh--4Y8uyvk-114">
          <mxGeometry relative="1" as="geometry" />
        </mxCell>
        <mxCell id="gxxnz1n0rxh--4Y8uyvk-101" value="За отель платил самостоятельно?" style="rhombus;whiteSpace=wrap;html=1;" vertex="1" parent="WIyWlLk6GJQsqaUBKTNV-1">
          <mxGeometry x="212.5" y="2170" width="117.5" height="130" as="geometry" />
        </mxCell>
        <mxCell id="gxxnz1n0rxh--4Y8uyvk-103" value="Да" style="text;html=1;align=center;verticalAlign=middle;resizable=0;points=[];autosize=1;" vertex="1" parent="WIyWlLk6GJQsqaUBKTNV-1">
          <mxGeometry x="305" y="2040" width="30" height="20" as="geometry" />
        </mxCell>
        <mxCell id="gxxnz1n0rxh--4Y8uyvk-110" style="edgeStyle=orthogonalEdgeStyle;rounded=0;orthogonalLoop=1;jettySize=auto;html=1;exitX=0;exitY=0.5;exitDx=0;exitDy=0;entryX=0.5;entryY=0;entryDx=0;entryDy=0;" edge="1" parent="WIyWlLk6GJQsqaUBKTNV-1" source="gxxnz1n0rxh--4Y8uyvk-105">
          <mxGeometry relative="1" as="geometry">
            <mxPoint x="-20" y="2550" as="targetPoint" />
          </mxGeometry>
        </mxCell>
        <mxCell id="gxxnz1n0rxh--4Y8uyvk-111" style="edgeStyle=orthogonalEdgeStyle;rounded=0;orthogonalLoop=1;jettySize=auto;html=1;exitX=1;exitY=0.5;exitDx=0;exitDy=0;entryX=0.5;entryY=0;entryDx=0;entryDy=0;" edge="1" parent="WIyWlLk6GJQsqaUBKTNV-1" source="gxxnz1n0rxh--4Y8uyvk-105">
          <mxGeometry relative="1" as="geometry">
            <mxPoint x="286.25" y="2560" as="targetPoint" />
          </mxGeometry>
        </mxCell>
        <mxCell id="gxxnz1n0rxh--4Y8uyvk-105" value="Оригинальный счет и чек сохранились?" style="rhombus;whiteSpace=wrap;html=1;" vertex="1" parent="WIyWlLk6GJQsqaUBKTNV-1">
          <mxGeometry x="82.75" y="2380" width="124.5" height="130" as="geometry" />
        </mxCell>
        <mxCell id="gxxnz1n0rxh--4Y8uyvk-107" value="да" style="text;html=1;align=center;verticalAlign=middle;resizable=0;points=[];autosize=1;" vertex="1" parent="WIyWlLk6GJQsqaUBKTNV-1">
          <mxGeometry x="165" y="2210" width="30" height="20" as="geometry" />
        </mxCell>
        <mxCell id="gxxnz1n0rxh--4Y8uyvk-112" value="да" style="text;html=1;align=center;verticalAlign=middle;resizable=0;points=[];autosize=1;" vertex="1" parent="WIyWlLk6GJQsqaUBKTNV-1">
          <mxGeometry x="17.5" y="2420" width="30" height="20" as="geometry" />
        </mxCell>
        <mxCell id="gxxnz1n0rxh--4Y8uyvk-113" value="нет" style="text;html=1;align=center;verticalAlign=middle;resizable=0;points=[];autosize=1;" vertex="1" parent="WIyWlLk6GJQsqaUBKTNV-1">
          <mxGeometry x="215" y="2420" width="30" height="20" as="geometry" />
        </mxCell>
        <mxCell id="gxxnz1n0rxh--4Y8uyvk-124" style="edgeStyle=orthogonalEdgeStyle;rounded=0;orthogonalLoop=1;jettySize=auto;html=1;exitX=1;exitY=0.5;exitDx=0;exitDy=0;entryX=0.5;entryY=0;entryDx=0;entryDy=0;" edge="1" parent="WIyWlLk6GJQsqaUBKTNV-1" source="gxxnz1n0rxh--4Y8uyvk-114">
          <mxGeometry relative="1" as="geometry">
            <mxPoint x="710" y="2440" as="targetPoint" />
          </mxGeometry>
        </mxCell>
        <mxCell id="gxxnz1n0rxh--4Y8uyvk-160" style="edgeStyle=orthogonalEdgeStyle;rounded=0;orthogonalLoop=1;jettySize=auto;html=1;exitX=0;exitY=0.5;exitDx=0;exitDy=0;entryX=0.5;entryY=0;entryDx=0;entryDy=0;" edge="1" parent="WIyWlLk6GJQsqaUBKTNV-1" source="gxxnz1n0rxh--4Y8uyvk-114" target="gxxnz1n0rxh--4Y8uyvk-159">
          <mxGeometry relative="1" as="geometry" />
        </mxCell>
        <mxCell id="gxxnz1n0rxh--4Y8uyvk-114" value="Оригинальная справка о проживании есть?" style="rhombus;whiteSpace=wrap;html=1;" vertex="1" parent="WIyWlLk6GJQsqaUBKTNV-1">
          <mxGeometry x="480" y="2290" width="136" height="130" as="geometry" />
        </mxCell>
        <mxCell id="gxxnz1n0rxh--4Y8uyvk-119" value="да" style="text;html=1;align=center;verticalAlign=middle;resizable=0;points=[];autosize=1;" vertex="1" parent="WIyWlLk6GJQsqaUBKTNV-1">
          <mxGeometry x="435" y="2330" width="30" height="20" as="geometry" />
        </mxCell>
        <mxCell id="gxxnz1n0rxh--4Y8uyvk-125" style="edgeStyle=orthogonalEdgeStyle;rounded=0;orthogonalLoop=1;jettySize=auto;html=1;exitX=0.5;exitY=1;exitDx=0;exitDy=0;entryX=0.5;entryY=0;entryDx=0;entryDy=0;" edge="1" parent="WIyWlLk6GJQsqaUBKTNV-1" target="gxxnz1n0rxh--4Y8uyvk-122">
          <mxGeometry relative="1" as="geometry">
            <mxPoint x="710" y="2530" as="sourcePoint" />
          </mxGeometry>
        </mxCell>
        <mxCell id="gxxnz1n0rxh--4Y8uyvk-121" value="нет" style="text;html=1;align=center;verticalAlign=middle;resizable=0;points=[];autosize=1;" vertex="1" parent="WIyWlLk6GJQsqaUBKTNV-1">
          <mxGeometry x="414" y="2210" width="30" height="20" as="geometry" />
        </mxCell>
        <mxCell id="gxxnz1n0rxh--4Y8uyvk-128" style="edgeStyle=orthogonalEdgeStyle;rounded=0;orthogonalLoop=1;jettySize=auto;html=1;exitX=0.5;exitY=1;exitDx=0;exitDy=0;entryX=0.5;entryY=0;entryDx=0;entryDy=0;" edge="1" parent="WIyWlLk6GJQsqaUBKTNV-1" source="gxxnz1n0rxh--4Y8uyvk-122">
          <mxGeometry relative="1" as="geometry">
            <mxPoint x="590" y="2710" as="targetPoint" />
          </mxGeometry>
        </mxCell>
        <mxCell id="gxxnz1n0rxh--4Y8uyvk-129" style="edgeStyle=orthogonalEdgeStyle;rounded=0;orthogonalLoop=1;jettySize=auto;html=1;exitX=0.5;exitY=1;exitDx=0;exitDy=0;entryX=0.5;entryY=0;entryDx=0;entryDy=0;" edge="1" parent="WIyWlLk6GJQsqaUBKTNV-1" source="gxxnz1n0rxh--4Y8uyvk-122">
          <mxGeometry relative="1" as="geometry">
            <mxPoint x="840" y="2710" as="targetPoint" />
          </mxGeometry>
        </mxCell>
        <mxCell id="gxxnz1n0rxh--4Y8uyvk-122" value="Платил CWT?" style="rhombus;whiteSpace=wrap;html=1;" vertex="1" parent="WIyWlLk6GJQsqaUBKTNV-1">
          <mxGeometry x="670" y="2570" width="80" height="80" as="geometry" />
        </mxCell>
        <mxCell id="gxxnz1n0rxh--4Y8uyvk-133" style="edgeStyle=orthogonalEdgeStyle;rounded=0;orthogonalLoop=1;jettySize=auto;html=1;exitX=0.5;exitY=1;exitDx=0;exitDy=0;entryX=0.5;entryY=0;entryDx=0;entryDy=0;" edge="1" parent="WIyWlLk6GJQsqaUBKTNV-1">
          <mxGeometry relative="1" as="geometry">
            <mxPoint x="590" y="2800" as="sourcePoint" />
            <mxPoint x="590" y="2860" as="targetPoint" />
          </mxGeometry>
        </mxCell>
        <mxCell id="gxxnz1n0rxh--4Y8uyvk-131" style="edgeStyle=orthogonalEdgeStyle;rounded=0;orthogonalLoop=1;jettySize=auto;html=1;exitX=0.5;exitY=1;exitDx=0;exitDy=0;" edge="1" parent="WIyWlLk6GJQsqaUBKTNV-1">
          <mxGeometry relative="1" as="geometry">
            <mxPoint x="840" y="2800" as="sourcePoint" />
            <mxPoint x="840" y="2860" as="targetPoint" />
          </mxGeometry>
        </mxCell>
        <mxCell id="gxxnz1n0rxh--4Y8uyvk-134" value="&lt;span&gt;Добавить в список приказ&lt;/span&gt;" style="rounded=0;whiteSpace=wrap;html=1;" vertex="1" parent="WIyWlLk6GJQsqaUBKTNV-1">
          <mxGeometry x="50" y="305" width="120" height="60" as="geometry" />
        </mxCell>
        <mxCell id="gxxnz1n0rxh--4Y8uyvk-135" value="&lt;span&gt;Уведомить, что если поездка в страну, где требуется виза и ставятся штампы, то они нружны.&lt;/span&gt;" style="shape=parallelogram;perimeter=parallelogramPerimeter;whiteSpace=wrap;html=1;fixedSize=1;" vertex="1" parent="WIyWlLk6GJQsqaUBKTNV-1">
          <mxGeometry x="245" y="305" width="140" height="80" as="geometry" />
        </mxCell>
        <mxCell id="gxxnz1n0rxh--4Y8uyvk-139" style="edgeStyle=orthogonalEdgeStyle;rounded=0;orthogonalLoop=1;jettySize=auto;html=1;exitX=0.5;exitY=1;exitDx=0;exitDy=0;entryX=0.5;entryY=0;entryDx=0;entryDy=0;" edge="1" parent="WIyWlLk6GJQsqaUBKTNV-1" source="gxxnz1n0rxh--4Y8uyvk-138" target="WIyWlLk6GJQsqaUBKTNV-10">
          <mxGeometry relative="1" as="geometry" />
        </mxCell>
        <mxCell id="gxxnz1n0rxh--4Y8uyvk-138" value="&lt;span&gt;Добавить в список приказ и скан загран паспорта&lt;/span&gt;" style="rounded=0;whiteSpace=wrap;html=1;" vertex="1" parent="WIyWlLk6GJQsqaUBKTNV-1">
          <mxGeometry x="255" y="410" width="120" height="60" as="geometry" />
        </mxCell>
        <mxCell id="gxxnz1n0rxh--4Y8uyvk-148" style="edgeStyle=orthogonalEdgeStyle;rounded=0;orthogonalLoop=1;jettySize=auto;html=1;exitX=0.5;exitY=1;exitDx=0;exitDy=0;entryX=0.5;entryY=0;entryDx=0;entryDy=0;" edge="1" parent="WIyWlLk6GJQsqaUBKTNV-1" source="gxxnz1n0rxh--4Y8uyvk-140" target="gxxnz1n0rxh--4Y8uyvk-92">
          <mxGeometry relative="1" as="geometry">
            <mxPoint x="480" y="1600" as="targetPoint" />
            <Array as="points">
              <mxPoint x="375" y="1320" />
              <mxPoint x="550" y="1320" />
              <mxPoint x="550" y="1970" />
              <mxPoint x="445" y="1970" />
            </Array>
          </mxGeometry>
        </mxCell>
        <mxCell id="gxxnz1n0rxh--4Y8uyvk-140" value="&lt;span&gt;Добавить в список служебную записку&lt;/span&gt;" style="rounded=0;whiteSpace=wrap;html=1;" vertex="1" parent="WIyWlLk6GJQsqaUBKTNV-1">
          <mxGeometry x="315" y="900" width="120" height="60" as="geometry" />
        </mxCell>
        <mxCell id="gxxnz1n0rxh--4Y8uyvk-141" value="&lt;span&gt;Добавить в список ор. посадочные талоны&lt;/span&gt;" style="rounded=0;whiteSpace=wrap;html=1;" vertex="1" parent="WIyWlLk6GJQsqaUBKTNV-1">
          <mxGeometry x="-65" y="870" width="120" height="60" as="geometry" />
        </mxCell>
        <mxCell id="gxxnz1n0rxh--4Y8uyvk-143" value="&lt;span&gt;Добавить в список ор. справку от авиаперевозчика&lt;/span&gt;" style="rounded=0;whiteSpace=wrap;html=1;" vertex="1" parent="WIyWlLk6GJQsqaUBKTNV-1">
          <mxGeometry x="140" y="870" width="120" height="60" as="geometry" />
        </mxCell>
        <mxCell id="gxxnz1n0rxh--4Y8uyvk-179" style="edgeStyle=orthogonalEdgeStyle;rounded=0;orthogonalLoop=1;jettySize=auto;html=1;exitX=0.5;exitY=1;exitDx=0;exitDy=0;entryX=0.5;entryY=0;entryDx=0;entryDy=0;" edge="1" parent="WIyWlLk6GJQsqaUBKTNV-1" source="gxxnz1n0rxh--4Y8uyvk-144" target="gxxnz1n0rxh--4Y8uyvk-92">
          <mxGeometry relative="1" as="geometry">
            <Array as="points">
              <mxPoint x="550" y="960" />
              <mxPoint x="550" y="1970" />
              <mxPoint x="445" y="1970" />
            </Array>
          </mxGeometry>
        </mxCell>
        <mxCell id="gxxnz1n0rxh--4Y8uyvk-144" value="&lt;span&gt;Добавить в список электронный жд билет, выписку из банка&lt;/span&gt;" style="rounded=0;whiteSpace=wrap;html=1;" vertex="1" parent="WIyWlLk6GJQsqaUBKTNV-1">
          <mxGeometry x="488" y="900" width="120" height="60" as="geometry" />
        </mxCell>
        <mxCell id="gxxnz1n0rxh--4Y8uyvk-146" style="edgeStyle=orthogonalEdgeStyle;rounded=0;orthogonalLoop=1;jettySize=auto;html=1;exitX=0.5;exitY=1;exitDx=0;exitDy=0;entryX=0.5;entryY=0;entryDx=0;entryDy=0;" edge="1" parent="WIyWlLk6GJQsqaUBKTNV-1" source="gxxnz1n0rxh--4Y8uyvk-145" target="gxxnz1n0rxh--4Y8uyvk-92">
          <mxGeometry relative="1" as="geometry">
            <Array as="points">
              <mxPoint x="730" y="1320" />
              <mxPoint x="550" y="1320" />
              <mxPoint x="550" y="1970" />
              <mxPoint x="445" y="1970" />
            </Array>
          </mxGeometry>
        </mxCell>
        <mxCell id="gxxnz1n0rxh--4Y8uyvk-145" value="&lt;span&gt;Добавить в список электронный жд билет&lt;/span&gt;" style="rounded=0;whiteSpace=wrap;html=1;" vertex="1" parent="WIyWlLk6GJQsqaUBKTNV-1">
          <mxGeometry x="670" y="900" width="120" height="60" as="geometry" />
        </mxCell>
        <mxCell id="gxxnz1n0rxh--4Y8uyvk-150" style="edgeStyle=orthogonalEdgeStyle;rounded=0;orthogonalLoop=1;jettySize=auto;html=1;exitX=0.5;exitY=1;exitDx=0;exitDy=0;entryX=0.5;entryY=0;entryDx=0;entryDy=0;" edge="1" parent="WIyWlLk6GJQsqaUBKTNV-1" source="gxxnz1n0rxh--4Y8uyvk-149" target="gxxnz1n0rxh--4Y8uyvk-68">
          <mxGeometry relative="1" as="geometry" />
        </mxCell>
        <mxCell id="gxxnz1n0rxh--4Y8uyvk-149" value="&lt;span&gt;Добавить в список электронные билеты&lt;/span&gt;" style="rounded=0;whiteSpace=wrap;html=1;" vertex="1" parent="WIyWlLk6GJQsqaUBKTNV-1">
          <mxGeometry x="120" y="1130" width="120" height="60" as="geometry" />
        </mxCell>
        <mxCell id="gxxnz1n0rxh--4Y8uyvk-151" value="&lt;span&gt;Добавить в список маршрутную квитанцию, выписку из банка&lt;/span&gt;" style="rounded=0;whiteSpace=wrap;html=1;" vertex="1" parent="WIyWlLk6GJQsqaUBKTNV-1">
          <mxGeometry x="-70" y="1130" width="120" height="60" as="geometry" />
        </mxCell>
        <mxCell id="gxxnz1n0rxh--4Y8uyvk-154" style="edgeStyle=orthogonalEdgeStyle;rounded=0;orthogonalLoop=1;jettySize=auto;html=1;exitX=0.5;exitY=1;exitDx=0;exitDy=0;entryX=0.5;entryY=0;entryDx=0;entryDy=0;" edge="1" parent="WIyWlLk6GJQsqaUBKTNV-1" source="gxxnz1n0rxh--4Y8uyvk-152" target="gxxnz1n0rxh--4Y8uyvk-92">
          <mxGeometry relative="1" as="geometry">
            <Array as="points">
              <mxPoint x="-122" y="1970" />
              <mxPoint x="445" y="1970" />
            </Array>
          </mxGeometry>
        </mxCell>
        <mxCell id="gxxnz1n0rxh--4Y8uyvk-152" value="&lt;span&gt;Уведомить, что при командировке учитывается время до эропорта и из аэропорта, и приказ должен быть на даты, включая день выезда/приезда из дома/домой. Можно сделать приказ на продление.&lt;/span&gt;" style="shape=parallelogram;perimeter=parallelogramPerimeter;whiteSpace=wrap;html=1;fixedSize=1;" vertex="1" parent="WIyWlLk6GJQsqaUBKTNV-1">
          <mxGeometry x="-225" y="1390" width="205" height="110" as="geometry" />
        </mxCell>
        <mxCell id="gxxnz1n0rxh--4Y8uyvk-155" value="&lt;span&gt;Уведомить, что приказ должен быть, включая этот продленный день, и что нужно подтверждение в виде чека на такси с указанным маршрутом и временем. При отсутствии чека - день не получится засчитать и приказ должен быть на даты без этого дня.&lt;/span&gt;" style="shape=parallelogram;perimeter=parallelogramPerimeter;whiteSpace=wrap;html=1;fixedSize=1;" vertex="1" parent="WIyWlLk6GJQsqaUBKTNV-1">
          <mxGeometry x="-35" y="1640" width="255" height="120" as="geometry" />
        </mxCell>
        <mxCell id="gxxnz1n0rxh--4Y8uyvk-171" style="edgeStyle=orthogonalEdgeStyle;rounded=0;orthogonalLoop=1;jettySize=auto;html=1;exitX=0.5;exitY=1;exitDx=0;exitDy=0;" edge="1" parent="WIyWlLk6GJQsqaUBKTNV-1" source="gxxnz1n0rxh--4Y8uyvk-157" target="gxxnz1n0rxh--4Y8uyvk-170">
          <mxGeometry relative="1" as="geometry" />
        </mxCell>
        <mxCell id="gxxnz1n0rxh--4Y8uyvk-157" value="&lt;span&gt;Добавить оригинальный счет и чек из гостиницы (+ выписка из банка в случае загран поездки)&lt;/span&gt;" style="rounded=0;whiteSpace=wrap;html=1;" vertex="1" parent="WIyWlLk6GJQsqaUBKTNV-1">
          <mxGeometry x="-95" y="2550" width="150" height="100" as="geometry" />
        </mxCell>
        <mxCell id="gxxnz1n0rxh--4Y8uyvk-172" style="edgeStyle=orthogonalEdgeStyle;rounded=0;orthogonalLoop=1;jettySize=auto;html=1;exitX=0.5;exitY=1;exitDx=0;exitDy=0;entryX=0.5;entryY=0;entryDx=0;entryDy=0;" edge="1" parent="WIyWlLk6GJQsqaUBKTNV-1" source="gxxnz1n0rxh--4Y8uyvk-158" target="gxxnz1n0rxh--4Y8uyvk-170">
          <mxGeometry relative="1" as="geometry">
            <mxPoint x="440" y="3050.0000000000005" as="targetPoint" />
            <Array as="points">
              <mxPoint x="282" y="2880" />
              <mxPoint x="440" y="2880" />
            </Array>
          </mxGeometry>
        </mxCell>
        <mxCell id="gxxnz1n0rxh--4Y8uyvk-158" value="&lt;span&gt;Добавить копию счета из гостиницы (запросить) и оригинальную выписку из банка на оплату&lt;/span&gt;" style="rounded=0;whiteSpace=wrap;html=1;" vertex="1" parent="WIyWlLk6GJQsqaUBKTNV-1">
          <mxGeometry x="207.25" y="2560" width="150" height="70" as="geometry" />
        </mxCell>
        <mxCell id="gxxnz1n0rxh--4Y8uyvk-173" style="edgeStyle=orthogonalEdgeStyle;rounded=0;orthogonalLoop=1;jettySize=auto;html=1;exitX=0.5;exitY=1;exitDx=0;exitDy=0;entryX=0.5;entryY=0;entryDx=0;entryDy=0;" edge="1" parent="WIyWlLk6GJQsqaUBKTNV-1" source="gxxnz1n0rxh--4Y8uyvk-159" target="gxxnz1n0rxh--4Y8uyvk-170">
          <mxGeometry relative="1" as="geometry">
            <mxPoint x="440" y="3050.0000000000005" as="targetPoint" />
            <Array as="points">
              <mxPoint x="440" y="2525" />
            </Array>
          </mxGeometry>
        </mxCell>
        <mxCell id="gxxnz1n0rxh--4Y8uyvk-159" value="&lt;span&gt;Добавить оригинальную справку из отеля&lt;/span&gt;" style="rounded=0;whiteSpace=wrap;html=1;" vertex="1" parent="WIyWlLk6GJQsqaUBKTNV-1">
          <mxGeometry x="365" y="2465" width="150" height="60" as="geometry" />
        </mxCell>
        <mxCell id="gxxnz1n0rxh--4Y8uyvk-162" style="edgeStyle=orthogonalEdgeStyle;rounded=0;orthogonalLoop=1;jettySize=auto;html=1;exitX=0.5;exitY=1;exitDx=0;exitDy=0;entryX=0.5;entryY=0;entryDx=0;entryDy=0;" edge="1" parent="WIyWlLk6GJQsqaUBKTNV-1" source="gxxnz1n0rxh--4Y8uyvk-161" target="gxxnz1n0rxh--4Y8uyvk-122">
          <mxGeometry relative="1" as="geometry" />
        </mxCell>
        <mxCell id="gxxnz1n0rxh--4Y8uyvk-161" value="&lt;span&gt;Уведомить, что без справки мы можем начислить только апартаментовую (более низкую) ставку суточных.&lt;/span&gt;" style="shape=parallelogram;perimeter=parallelogramPerimeter;whiteSpace=wrap;html=1;fixedSize=1;" vertex="1" parent="WIyWlLk6GJQsqaUBKTNV-1">
          <mxGeometry x="627.5" y="2440" width="165" height="85" as="geometry" />
        </mxCell>
        <mxCell id="gxxnz1n0rxh--4Y8uyvk-164" value="" style="edgeStyle=orthogonalEdgeStyle;rounded=0;orthogonalLoop=1;jettySize=auto;html=1;" edge="1" parent="WIyWlLk6GJQsqaUBKTNV-1" source="gxxnz1n0rxh--4Y8uyvk-163">
          <mxGeometry relative="1" as="geometry">
            <mxPoint x="590" y="2860" as="targetPoint" />
          </mxGeometry>
        </mxCell>
        <mxCell id="gxxnz1n0rxh--4Y8uyvk-163" value="&lt;span&gt;Уведомить,что справку можно заказать у CWT&lt;/span&gt;" style="shape=parallelogram;perimeter=parallelogramPerimeter;whiteSpace=wrap;html=1;fixedSize=1;" vertex="1" parent="WIyWlLk6GJQsqaUBKTNV-1">
          <mxGeometry x="530" y="2710" width="120" height="60" as="geometry" />
        </mxCell>
        <mxCell id="gxxnz1n0rxh--4Y8uyvk-166" value="" style="edgeStyle=orthogonalEdgeStyle;rounded=0;orthogonalLoop=1;jettySize=auto;html=1;" edge="1" parent="WIyWlLk6GJQsqaUBKTNV-1" source="gxxnz1n0rxh--4Y8uyvk-165">
          <mxGeometry relative="1" as="geometry">
            <mxPoint x="840" y="2860" as="targetPoint" />
          </mxGeometry>
        </mxCell>
        <mxCell id="gxxnz1n0rxh--4Y8uyvk-165" value="&lt;span&gt;Уведомить,что справку можно попробовать заказать в отеле&lt;/span&gt;" style="shape=parallelogram;perimeter=parallelogramPerimeter;whiteSpace=wrap;html=1;fixedSize=1;" vertex="1" parent="WIyWlLk6GJQsqaUBKTNV-1">
          <mxGeometry x="780" y="2710" width="120" height="60" as="geometry" />
        </mxCell>
        <mxCell id="gxxnz1n0rxh--4Y8uyvk-174" style="edgeStyle=orthogonalEdgeStyle;rounded=0;orthogonalLoop=1;jettySize=auto;html=1;exitX=0.5;exitY=1;exitDx=0;exitDy=0;entryX=0.5;entryY=0;entryDx=0;entryDy=0;" edge="1" parent="WIyWlLk6GJQsqaUBKTNV-1" source="gxxnz1n0rxh--4Y8uyvk-167" target="gxxnz1n0rxh--4Y8uyvk-170">
          <mxGeometry relative="1" as="geometry">
            <Array as="points">
              <mxPoint x="590" y="3060" />
              <mxPoint x="440" y="3060" />
            </Array>
          </mxGeometry>
        </mxCell>
        <mxCell id="gxxnz1n0rxh--4Y8uyvk-167" value="&lt;span&gt;Добавить оригинальную справку CWT&lt;/span&gt;" style="rounded=0;whiteSpace=wrap;html=1;" vertex="1" parent="WIyWlLk6GJQsqaUBKTNV-1">
          <mxGeometry x="530" y="2860" width="120" height="60" as="geometry" />
        </mxCell>
        <mxCell id="gxxnz1n0rxh--4Y8uyvk-175" style="edgeStyle=orthogonalEdgeStyle;rounded=0;orthogonalLoop=1;jettySize=auto;html=1;exitX=0.5;exitY=1;exitDx=0;exitDy=0;entryX=0.5;entryY=0;entryDx=0;entryDy=0;" edge="1" parent="WIyWlLk6GJQsqaUBKTNV-1" source="gxxnz1n0rxh--4Y8uyvk-169" target="gxxnz1n0rxh--4Y8uyvk-170">
          <mxGeometry relative="1" as="geometry">
            <mxPoint x="440" y="3050.0000000000005" as="targetPoint" />
            <Array as="points">
              <mxPoint x="840" y="3060" />
              <mxPoint x="440" y="3060" />
            </Array>
          </mxGeometry>
        </mxCell>
        <mxCell id="gxxnz1n0rxh--4Y8uyvk-169" value="&#xa;&#xa;&lt;span style=&quot;color: rgb(0, 0, 0); font-family: helvetica; font-size: 12px; font-style: normal; font-weight: 400; letter-spacing: normal; text-align: center; text-indent: 0px; text-transform: none; word-spacing: 0px; background-color: rgb(248, 249, 250); display: inline; float: none;&quot;&gt;Добавить оригинальную справку из отеля&lt;/span&gt;&#xa;&#xa;" style="rounded=0;whiteSpace=wrap;html=1;" vertex="1" parent="WIyWlLk6GJQsqaUBKTNV-1">
          <mxGeometry x="780" y="2860" width="120" height="60" as="geometry" />
        </mxCell>
        <mxCell id="gxxnz1n0rxh--4Y8uyvk-183" style="edgeStyle=orthogonalEdgeStyle;rounded=0;orthogonalLoop=1;jettySize=auto;html=1;exitX=0.5;exitY=1;exitDx=0;exitDy=0;entryX=0.5;entryY=0;entryDx=0;entryDy=0;" edge="1" parent="WIyWlLk6GJQsqaUBKTNV-1" source="gxxnz1n0rxh--4Y8uyvk-170" target="gxxnz1n0rxh--4Y8uyvk-182">
          <mxGeometry relative="1" as="geometry" />
        </mxCell>
        <mxCell id="gxxnz1n0rxh--4Y8uyvk-170" value="Вывести список" style="shape=parallelogram;perimeter=parallelogramPerimeter;whiteSpace=wrap;html=1;fixedSize=1;" vertex="1" parent="WIyWlLk6GJQsqaUBKTNV-1">
          <mxGeometry x="317.5" y="3110" width="245" height="60" as="geometry" />
        </mxCell>
        <mxCell id="gxxnz1n0rxh--4Y8uyvk-180" value="нет" style="text;html=1;align=center;verticalAlign=middle;resizable=0;points=[];autosize=1;" vertex="1" parent="WIyWlLk6GJQsqaUBKTNV-1">
          <mxGeometry x="627.5" y="2040" width="30" height="20" as="geometry" />
        </mxCell>
        <mxCell id="gxxnz1n0rxh--4Y8uyvk-181" value="&lt;span&gt;Добавить в список заявление на продление, чек такси и маршрут такси, с указанным временем и датой&lt;/span&gt;" style="rounded=0;whiteSpace=wrap;html=1;" vertex="1" parent="WIyWlLk6GJQsqaUBKTNV-1">
          <mxGeometry x="21" y="1810" width="143" height="85" as="geometry" />
        </mxCell>
        <mxCell id="gxxnz1n0rxh--4Y8uyvk-182" value="Конец" style="rounded=1;whiteSpace=wrap;html=1;" vertex="1" parent="WIyWlLk6GJQsqaUBKTNV-1">
          <mxGeometry x="380" y="3220" width="120" height="60" as="geometry" />
        </mxCell>
      </root>
    </mxGraphModel>
  </diagram>
</mxfile>
